<svg width="191" height="38" viewBox="0 0 191 38" fill="none" xmlns="http://www.w3.org/2000/svg">
<path d="M32.3295 14.7386H23.8068C23.6932 13.8636 23.4602 13.0739 23.108 12.3693C22.7557 11.6648 22.2898 11.0625 21.7102 10.5625C21.1307 10.0625 20.4432 9.68182 19.6477 9.42045C18.8636 9.14773 17.9943 9.01136 17.0398 9.01136C15.3466 9.01136 13.8864 9.42614 12.6591 10.2557C11.4432 11.0852 10.5057 12.2841 9.84659 13.8523C9.19886 15.4205 8.875 17.3182 8.875 19.5455C8.875 21.8636 9.20455 23.8068 9.86364 25.375C10.5341 26.9318 11.4716 28.108 12.6761 28.9034C13.892 29.6875 15.3295 30.0795 16.9886 30.0795C17.9205 30.0795 18.767 29.9602 19.5284 29.7216C20.3011 29.483 20.9773 29.1364 21.5568 28.6818C22.1477 28.2159 22.6307 27.6534 23.0057 26.9943C23.392 26.3239 23.6591 25.5682 23.8068 24.7273L32.3295 24.7784C32.1818 26.3239 31.733 27.8466 30.983 29.3466C30.2443 30.8466 29.2273 32.2159 27.9318 33.4545C26.6364 34.6818 25.0568 35.6591 23.1932 36.3864C21.3409 37.1136 19.2159 37.4773 16.8182 37.4773C13.6591 37.4773 10.8295 36.7841 8.32955 35.3977C5.84091 34 3.875 31.9659 2.43182 29.2955C0.988636 26.625 0.267045 23.375 0.267045 19.5455C0.267045 15.7045 1 12.4489 2.46591 9.77841C3.93182 7.10795 5.91477 5.07955 8.41477 3.69318C10.9148 2.30682 13.7159 1.61364 16.8182 1.61364C18.9318 1.61364 20.8864 1.90909 22.6818 2.5C24.4773 3.07954 26.0568 3.93182 27.4205 5.05682C28.7841 6.17045 29.892 7.53977 30.7443 9.16477C31.5966 10.7898 32.125 12.6477 32.3295 14.7386ZM45.0838 2.09091L52.8906 27.6591H53.1804L60.9872 2.09091H70.4304L58.652 37H47.419L35.6406 2.09091H45.0838ZM103.814 14.7386H95.2912C95.1776 13.8636 94.9446 13.0739 94.5923 12.3693C94.2401 11.6648 93.7741 11.0625 93.1946 10.5625C92.6151 10.0625 91.9276 9.68182 91.1321 9.42045C90.348 9.14773 89.4787 9.01136 88.5241 9.01136C86.831 9.01136 85.3707 9.42614 84.1435 10.2557C82.9276 11.0852 81.9901 12.2841 81.331 13.8523C80.6832 15.4205 80.3594 17.3182 80.3594 19.5455C80.3594 21.8636 80.6889 23.8068 81.348 25.375C82.0185 26.9318 82.956 28.108 84.1605 28.9034C85.3764 29.6875 86.8139 30.0795 88.473 30.0795C89.4048 30.0795 90.2514 29.9602 91.0128 29.7216C91.7855 29.483 92.4616 29.1364 93.0412 28.6818C93.6321 28.2159 94.1151 27.6534 94.4901 26.9943C94.8764 26.3239 95.1435 25.5682 95.2912 24.7273L103.814 24.7784C103.666 26.3239 103.217 27.8466 102.467 29.3466C101.729 30.8466 100.712 32.2159 99.4162 33.4545C98.1207 34.6818 96.5412 35.6591 94.6776 36.3864C92.8253 37.1136 90.7003 37.4773 88.3026 37.4773C85.1435 37.4773 82.3139 36.7841 79.8139 35.3977C77.3253 34 75.3594 31.9659 73.9162 29.2955C72.473 26.625 71.7514 23.375 71.7514 19.5455C71.7514 15.7045 72.4844 12.4489 73.9503 9.77841C75.4162 7.10795 77.3991 5.07955 79.8991 3.69318C82.3991 2.30682 85.2003 1.61364 88.3026 1.61364C90.4162 1.61364 92.3707 1.90909 94.1662 2.5C95.9616 3.07954 97.5412 3.93182 98.9048 5.05682C100.268 6.17045 101.376 7.53977 102.229 9.16477C103.081 10.7898 103.609 12.6477 103.814 14.7386ZM108.642 37V10.8182H116.739V15.5909H117.011C117.489 13.8636 118.267 12.5795 119.347 11.7386C120.426 10.8864 121.682 10.4602 123.114 10.4602C123.5 10.4602 123.898 10.4886 124.307 10.5455C124.716 10.5909 125.097 10.6648 125.449 10.767V18.0114C125.051 17.875 124.528 17.767 123.881 17.6875C123.244 17.608 122.676 17.5682 122.176 17.5682C121.188 17.5682 120.295 17.7898 119.5 18.233C118.716 18.6648 118.097 19.2727 117.642 20.0568C117.199 20.8295 116.977 21.7386 116.977 22.7841V37H108.642ZM135.241 37.4432C133.571 37.4432 132.088 37.1648 130.793 36.608C129.509 36.0398 128.491 35.1875 127.741 34.0511C127.003 32.9034 126.634 31.4659 126.634 29.7386C126.634 28.2841 126.889 27.0568 127.401 26.0568C127.912 25.0568 128.616 24.2443 129.514 23.6193C130.412 22.9943 131.446 22.5227 132.616 22.2045C133.787 21.875 135.037 21.6534 136.366 21.5398C137.855 21.4034 139.054 21.2614 139.963 21.1136C140.872 20.9545 141.531 20.733 141.94 20.4489C142.361 20.1534 142.571 19.7386 142.571 19.2045V19.1193C142.571 18.2443 142.27 17.5682 141.668 17.0909C141.065 16.6136 140.253 16.375 139.23 16.375C138.128 16.375 137.241 16.6136 136.571 17.0909C135.901 17.5682 135.474 18.2273 135.293 19.0682L127.605 18.7955C127.832 17.2045 128.418 15.7841 129.361 14.5341C130.315 13.2727 131.622 12.2841 133.281 11.5682C134.952 10.8409 136.957 10.4773 139.298 10.4773C140.969 10.4773 142.509 10.6761 143.918 11.0739C145.327 11.4602 146.554 12.0284 147.599 12.7784C148.645 13.517 149.452 14.4261 150.02 15.5057C150.599 16.5852 150.889 17.8182 150.889 19.2045V37H143.048V33.3523H142.844C142.378 34.2386 141.781 34.9886 141.054 35.6023C140.338 36.2159 139.491 36.6761 138.514 36.983C137.548 37.2898 136.457 37.4432 135.241 37.4432ZM137.815 31.9886C138.713 31.9886 139.52 31.8068 140.236 31.4432C140.963 31.0795 141.543 30.5795 141.974 29.9432C142.406 29.2955 142.622 28.5455 142.622 27.6932V25.2045C142.384 25.3295 142.094 25.4432 141.753 25.5455C141.423 25.6477 141.06 25.7443 140.662 25.8352C140.264 25.9261 139.855 26.0057 139.435 26.0739C139.014 26.142 138.611 26.2045 138.224 26.2614C137.44 26.3864 136.77 26.5795 136.213 26.8409C135.668 27.1023 135.247 27.4432 134.952 27.8636C134.668 28.2727 134.526 28.7614 134.526 29.3295C134.526 30.1932 134.832 30.8523 135.446 31.3068C136.071 31.7614 136.861 31.9886 137.815 31.9886ZM170.866 10.8182V16.9545H154.026V10.8182H170.866ZM157.537 37V9.48864C157.537 7.46591 157.918 5.78977 158.679 4.46023C159.44 3.11932 160.497 2.11932 161.849 1.46023C163.202 0.789771 164.764 0.454543 166.537 0.454543C167.696 0.454543 168.787 0.545453 169.81 0.727273C170.844 0.897727 171.611 1.05114 172.111 1.1875L170.781 7.28977C170.474 7.1875 170.099 7.10227 169.656 7.03409C169.224 6.96591 168.815 6.93182 168.429 6.93182C167.452 6.93182 166.781 7.14773 166.418 7.57955C166.054 8.01136 165.872 8.60227 165.872 9.35227V37H157.537ZM189.655 10.8182V16.9545H173.138V10.8182H189.655ZM176.598 4.54545H184.933V28.767C184.933 29.2784 185.013 29.6932 185.172 30.0114C185.342 30.3182 185.587 30.5398 185.905 30.6761C186.223 30.8011 186.604 30.8636 187.047 30.8636C187.365 30.8636 187.7 30.8352 188.053 30.7784C188.416 30.7102 188.689 30.6534 188.871 30.608L190.132 36.625C189.734 36.7386 189.172 36.8807 188.445 37.0511C187.729 37.2216 186.871 37.3295 185.871 37.375C183.916 37.4659 182.24 37.2386 180.842 36.6932C179.456 36.1364 178.393 35.2727 177.655 34.1023C176.928 32.9318 176.575 31.4602 176.598 29.6875V4.54545Z" fill="#021526"/>
</svg>
